Coordinates
version=1
nRows=43
nColumns=12
inDegrees=yes

Units are S.I. units (second, meters, Newtons, ...)
Angles are in degrees

endheader
time	SC_y	SC_z	SC_x	AC_y	AC_z	AC_x	GH_y	GH_z	GH_yy	EL_x	PS_y
       0.0              -49.38          27.39          66.54          32.76         -4.791          18.63          159.0          82.84          174.8          98.99          47.98
   0.02216              -49.37          27.39          66.55          32.76         -4.792          18.63          158.9          82.83          174.8          98.98          47.99
   0.04433              -49.37          27.39          66.55          32.76         -4.794          18.62          158.9          82.82          174.8          98.98           48.0
   0.06649              -49.37          27.39          66.55          32.77         -4.795          18.62          158.9          82.81          174.7          98.97          48.01
   0.08865              -49.37          27.39          66.55          32.77         -4.796          18.62          158.8          82.79          174.7          98.95          48.03
    0.1108              -49.36          27.39          66.55          32.77         -4.798          18.61          158.8          82.78          174.7          98.94          48.04
     0.133              -49.36          27.39          66.56          32.78         -4.799          18.61          158.7          82.76          174.6          98.93          48.06
    0.1551              -49.36          27.39          66.56          32.78         -4.801           18.6          158.6          82.75          174.6          98.92          48.07
    0.1773              -49.35          27.39          66.56          32.78         -4.802           18.6          158.6          82.73          174.5           98.9          48.09
    0.1995              -49.35          27.39          66.56          32.79         -4.804          18.59          158.5          82.71          174.5          98.89          48.11
    0.2216              -49.34          27.39          66.57          32.79         -4.806          18.59          158.4          82.69          174.4          98.87          48.13
    0.2438              -49.34          27.39          66.57           32.8         -4.808          18.58          158.3          82.67          174.4          98.85          48.15
     0.266              -49.34          27.39          66.57          32.81         -4.811          18.58          158.3          82.64          174.3          98.84          48.17
    0.2881              -49.33          27.39          66.58          32.81         -4.813          18.57          158.2          82.62          174.3          98.82           48.2
    0.3103              -49.32          27.39          66.58          32.82         -4.816          18.56          158.1          82.59          174.2          98.79          48.23
    0.3324              -49.32          27.39          66.58          32.83         -4.819          18.55          157.9          82.56          174.1          98.77          48.26
    0.3546              -49.31          27.39          66.59          32.83         -4.822          18.55          157.8          82.52          174.0          98.74          48.29
    0.3768               -49.3          27.39          66.59          32.84         -4.826          18.54          157.7          82.49          174.0          98.72          48.33
    0.3989               -49.3          27.39           66.6          32.85         -4.829          18.53          157.5          82.45          173.9          98.69          48.36
    0.4211              -49.29          27.39          66.61          32.86         -4.833          18.52          157.4          82.41          173.8          98.65          48.41
    0.4433              -49.28          27.39          66.61          32.88         -4.838           18.5          157.2          82.36          173.6          98.61          48.45
    0.4654              -49.27          27.39          66.62          32.89         -4.843          18.49          157.0          82.31          173.5          98.57           48.5
    0.4876              -49.26           27.4          66.63           32.9         -4.849          18.48          156.8          82.25          173.4          98.53          48.56
    0.5097              -49.24           27.4          66.64          32.92         -4.855          18.46          156.6          82.19          173.2          98.48          48.62
    0.5319              -49.23           27.4          66.65          32.94         -4.862          18.44          156.3          82.12          173.0          98.42          48.69
    0.5541              -49.21           27.4          66.66          32.95         -4.869          18.42          156.0          82.04          172.9          98.36          48.77
    0.5762               -49.2           27.4          66.67          32.98         -4.878           18.4          155.7          81.95          172.6          98.29          48.86
    0.5984              -49.18           27.4          66.68           33.0         -4.887          18.37          155.3          81.85          172.4          98.21          48.96
    0.6206              -49.15           27.4           66.7          33.03         -4.898          18.34          154.9          81.74          172.1          98.13          49.07
    0.6427              -49.13          27.41          66.72          33.06          -4.91          18.31          154.5          81.61          171.8          98.03          49.19
    0.6649               -49.1          27.41          66.74           33.1         -4.924          18.27          153.9          81.46          171.5          97.91          49.34
     0.687              -49.06          27.41          66.76          33.14         -4.941          18.23          153.3           81.3          171.0          97.78           49.5
    0.7092              -49.02          27.41          66.79          33.18         -4.959          18.18          152.6           81.1          170.6          97.63          49.69
    0.7314              -48.98          27.42          66.82          33.24         -4.981          18.12          151.8          80.88          170.0          97.45          49.91
    0.7535              -48.93          27.42          66.86           33.3         -5.006          18.06          150.8          80.62          169.4          97.25          50.17
    0.7757              -48.86          27.43           66.9          33.38         -5.036          17.98          149.7          80.31          168.6          97.01          50.48
    0.7979              -48.79          27.43          66.95          33.47         -5.071          17.88          148.3          79.94          167.7          96.72          50.84
      0.82               -48.7          27.44          67.01          33.58         -5.114          17.77          146.7           79.5          166.7          96.37          51.27
    0.8422              -48.59          27.45          67.09          33.71         -5.165          17.63          144.7          78.97          165.4          95.96           51.8
    0.8644              -48.46          27.46          67.18          33.87         -5.228          17.46          142.4          78.32          163.8          95.45          52.44
    0.8865               -48.3          27.47          67.29          34.07         -5.305          17.26          139.4          77.52          161.8          94.82          53.23
    0.9087               -48.1          27.48          67.43          34.31         -5.402           17.0          135.7          76.51          159.4          94.03          54.22
    0.9308              -47.84           27.5          67.61          34.63         -5.524          16.68          131.1          75.25          156.3          93.04          55.46
